<svg clip-rule="evenodd" fill-rule="evenodd" stroke-linejoin="round" stroke-miterlimit="2" viewBox="0 0 119 28" xmlns="http://www.w3.org/2000/svg"><g fill="#394149" fill-rule="nonzero" transform="translate(-2.4711 -2.42882)"><path d="m36.87 10.07h3v12.13h-3zm4.19 7.55c0-3 1.84-4.79 4.68-4.79s4.68 1.79 4.68 4.79-1.8 4.8-4.68 4.8-4.68-1.75-4.68-4.8zm6.35 0c0-1.65-.65-2.62-1.67-2.62s-1.66 1-1.66 2.62.63 2.6 1.66 2.6 1.67-.92 1.67-2.59zm4.14 5.17h2.88c.137.305.369.557.661.719s.628.226.959.181c1.14 0 1.74-.62 1.74-1.52v-1.68h-.06c-.239.515-.627.946-1.113 1.239-.487.292-1.05.432-1.617.401-2.19 0-3.64-1.67-3.64-4.54s1.38-4.68 3.68-4.68c.585-.023 1.162.133 1.656.448.493.315.878.772 1.104 1.312v-1.67h3v9.1c0 2.19-1.93 3.55-4.78 3.55-2.65 0-4.3-1.19-4.47-2.85zm6.25-5.18c0-1.46-.67-2.38-1.73-2.38s-1.71.91-1.71 2.38.64 2.3 1.71 2.3 1.73-.81 1.73-2.29zm4.13 0c0-3 1.84-4.79 4.68-4.79s4.69 1.79 4.69 4.79-1.8 4.8-4.69 4.8-4.68-1.74-4.68-4.79zm6.35 0c0-1.65-.65-2.62-1.67-2.62s-1.61 1.01-1.61 2.64.63 2.6 1.65 2.6 1.63-.93 1.63-2.6zm4.16-6.79c-.008-.303.074-.601.236-.857s.397-.459.674-.581c.277-.123.584-.161.882-.109.299.052.575.192.794.401s.371.479.437.775c.066.295.042.604-.068.886-.11.283-.301.526-.549.7-.249.173-.543.269-.846.275-.201.014-.402-.014-.592-.082-.189-.068-.363-.174-.509-.312-.147-.138-.263-.305-.342-.49s-.119-.385-.117-.586zm0 2.2h3v9.18h-3zm13.89 4.59c0 3-1.33 4.71-3.61 4.71-.585.038-1.167-.105-1.667-.409-.501-.304-.897-.755-1.133-1.291h-.06v4.52h-3v-12.14h3v1.64h.06c.225-.545.613-1.007 1.111-1.324.497-.316 1.08-.472 1.669-.446 2.3.04 3.67 1.76 3.67 4.76zm-3 0c0-1.46-.67-2.39-1.72-2.39s-1.72.94-1.73 2.39.68 2.38 1.73 2.38 1.72-.91 1.72-2.36zm8.15-4.8c2.49 0 4 1.18 4.07 3.07h-2.73c0-.65-.54-1.06-1.37-1.06s-1.2.32-1.2.79.33.62 1 .76l1.92.39c1.83.39 2.61 1.13 2.61 2.52 0 1.9-1.73 3.12-4.28 3.12s-4.22-1.22-4.35-3.09h2.89c.09.68.63 1.08 1.51 1.08s1.28-.29 1.28-.77-.28-.58-1-.73l-1.73-.37c-1.79-.37-2.73-1.32-2.73-2.72.02-1.8 1.63-2.97 4.11-2.97zm14.31 9.37h-2.89v-1.71h-.06c-.159.574-.509 1.077-.993 1.424s-1.072.519-1.667.486c-.456.026-.912-.046-1.337-.212-.426-.165-.811-.42-1.129-.747-.319-.327-.564-.719-.718-1.149-.154-.429-.214-.887-.176-1.342v-5.93h3v5.24c0 1.09.56 1.67 1.49 1.67.218 0 .434-.046.633-.135.198-.09.376-.221.52-.385.143-.164.251-.357.314-.565.063-.209.082-.429.053-.645v-5.18h3zm1.45-9.18h2.9v1.77h.06c.159-.566.502-1.064.974-1.415s1.048-.536 1.636-.525c.599-.048 1.193.131 1.666.502.472.37.788.905.884 1.498h.06c.181-.599.557-1.121 1.068-1.483.51-.362 1.127-.544 1.752-.517.408-.014.814.059 1.192.212.379.154.72.385 1.003.679.283.295.501.645.64 1.029.138.384.195.793.165 1.2v6.25h-3v-5.45c0-1-.45-1.46-1.29-1.46-.187-.002-.373.037-.544.113s-.324.188-.448.329c-.124.14-.217.305-.272.484s-.07.368-.046.554v5.43h-2.85v-5.49c0-.92-.45-1.42-1.27-1.42-.189 0-.377.04-.549.118-.173.078-.328.191-.453.333-.126.142-.22.308-.277.489-.056.181-.074.372-.051.56v5.41h-3z"/><path d="m28.48 10.62c-.509-1.164-1.182-2.248-2-3.22-1.208-1.48-2.717-2.687-4.425-3.541-1.709-.855-3.579-1.338-5.488-1.418s-3.813.245-5.587.954-3.378 1.786-4.706 3.159c-1.328 1.374-2.35 3.013-2.999 4.81s-.909 3.711-.765 5.616.69 3.758 1.602 5.436c.911 1.679 2.168 3.146 3.688 4.304.975.758 2.052 1.374 3.2 1.83 1.609.659 3.331.999 5.07 1 3.589-.008 7.029-1.439 9.566-3.979 2.536-2.54 3.961-5.982 3.964-9.571.003-1.851-.379-3.683-1.12-5.38zm-12.42-5.43c1.562 0 3.104.341 4.52 1-.345.149-.708.253-1.08.31-1.223.177-2.357.745-3.231 1.619s-1.442 2.008-1.619 3.231c-.078.686-.39 1.324-.883 1.807-.494.483-1.139.781-1.827.843-1.223.177-2.357.745-3.231 1.619s-1.442 2.008-1.619 3.231c-.06.652-.338 1.266-.79 1.74-.779-1.647-1.129-3.464-1.018-5.282.112-1.819.682-3.579 1.657-5.118s2.324-2.806 3.92-3.684c1.597-.878 3.389-1.337 5.211-1.336zm-8.27 17.81c.12-.11.24-.21.36-.33.89-.862 1.461-2.001 1.62-3.23.065-.691.373-1.336.87-1.82.478-.498 1.122-.804 1.81-.86 1.223-.177 2.357-.745 3.231-1.619s1.442-2.008 1.619-3.231c.043-.722.353-1.403.87-1.91.49-.488 1.14-.783 1.83-.83 1.124-.155 2.172-.654 3-1.43.943.782 1.741 1.723 2.36 2.78-.038.051-.082.098-.13.14-.477.502-1.12.815-1.81.88-1.225.174-2.36.741-3.234 1.616-.875.874-1.442 2.009-1.616 3.234-.07.688-.377 1.331-.867 1.82-.49.488-1.134.792-1.823.86-1.227.176-2.364.743-3.244 1.616-.879.874-1.453 2.008-1.636 3.234-.054.489-.222.958-.49 1.37-1.026-.609-1.945-1.383-2.72-2.29zm8.27 3.86c-1.015.001-2.025-.14-3-.42.334-.622.551-1.3.64-2 .07-.687.375-1.329.863-1.817s1.13-.793 1.817-.863c1.225-.175 2.361-.742 3.237-1.616.876-.875 1.445-2.009 1.623-3.234.07-.687.375-1.329.863-1.817s1.13-.793 1.817-.863c.922-.12 1.801-.463 2.56-1 .422 1.598.472 3.271.146 4.891-.325 1.62-1.018 3.145-2.024 4.456s-2.299 2.374-3.78 3.108c-1.48.734-3.109 1.119-4.762 1.125z"/></g></svg>